<svg xmlns="http://www.w3.org/2000/svg" xmlns:xlink="http://www.w3.org/1999/xlink" width="500" zoomAndPan="magnify" viewBox="0 0 375 374.999991" height="500" preserveAspectRatio="xMidYMid meet" version="1.0"><defs><g/></defs><path fill="rgb(29.40979%, 9.408569%, 68.629456%)" d="M 187.5 0 C 83.945312 0 0 83.945312 0 187.5 C 0 291.054688 83.945312 375 187.5 375 C 291.054688 375 375 291.054688 375 187.5 C 375 83.945312 291.054688 0 187.5 0 " fill-opacity="1" fill-rule="nonzero"/><g fill="rgb(100%, 100%, 100%)" fill-opacity="0.2588"><g transform="translate(39.081114, 270.124504)"><g><path d="M 2.191406 -37.710938 C 7.894531 -37.710938 15.347656 -43.847656 19.292969 -47.355469 C 30.253906 -57.441406 39.902344 -67.964844 49.988281 -79.804688 C 51.304688 -81.121094 53.058594 -82.875 54.371094 -84.628906 C 55.6875 -86.382812 57.878906 -87.699219 60.949219 -89.011719 C 57.878906 -77.171875 55.25 -65.773438 55.25 -53.933594 C 55.25 -45.601562 58.757812 -41.21875 66.210938 -41.21875 C 67.964844 -41.21875 69.28125 -41.21875 70.15625 -41.65625 C 88.574219 -44.726562 119.707031 -74.105469 132.421875 -86.820312 C 132.863281 -87.257812 133.738281 -88.136719 134.175781 -88.574219 C 134.617188 -89.011719 134.617188 -89.453125 135.054688 -89.890625 C 135.929688 -92.960938 135.492188 -95.152344 133.300781 -96.46875 C 132.421875 -97.34375 131.546875 -97.78125 130.230469 -97.78125 C 129.792969 -97.78125 129.355469 -97.34375 128.039062 -96.90625 C 126.722656 -96.027344 125.40625 -95.152344 124.53125 -94.273438 C 123.214844 -92.960938 121.898438 -92.082031 120.585938 -90.765625 C 116.636719 -87.699219 113.128906 -84.628906 110.058594 -81.558594 C 106.550781 -78.488281 103.042969 -74.980469 99.097656 -71.910156 C 93.835938 -67.089844 88.136719 -63.582031 82.875 -60.074219 C 78.929688 -57.878906 74.980469 -56.125 71.035156 -54.371094 C 70.597656 -53.933594 70.15625 -53.933594 69.28125 -53.933594 C 67.527344 -53.933594 66.648438 -55.25 66.648438 -57.878906 C 66.648438 -76.734375 80.242188 -108.746094 88.574219 -125.40625 C 89.453125 -127.601562 90.328125 -129.355469 91.644531 -131.546875 C 92.519531 -133.300781 93.398438 -135.054688 94.273438 -137.246094 C 95.589844 -141.191406 95.152344 -144.261719 92.082031 -146.015625 C 90.765625 -146.453125 89.890625 -146.894531 89.453125 -146.894531 C 88.136719 -146.894531 86.382812 -146.015625 84.191406 -143.824219 C 82.875 -142.507812 81.996094 -140.753906 81.121094 -139.4375 C 79.804688 -137.683594 78.929688 -135.929688 77.613281 -134.617188 C 74.980469 -131.109375 72.351562 -127.601562 70.15625 -124.09375 C 67.527344 -120.585938 64.894531 -117.074219 62.265625 -114.007812 C 60.511719 -111.8125 59.195312 -110.5 58.320312 -110.5 C 57.878906 -110.5 56.566406 -111.375 54.371094 -112.691406 C 49.988281 -116.199219 45.601562 -117.953125 41.21875 -117.953125 C 36.394531 -117.953125 31.570312 -116.199219 26.746094 -112.253906 C 23.679688 -110.058594 21.484375 -108.304688 20.171875 -106.550781 C 7.015625 -93.398438 -7.453125 -67.527344 -7.453125 -48.234375 C -7.015625 -41.21875 -3.507812 -37.710938 2.191406 -37.710938 Z M 6.140625 -53.496094 C 6.140625 -53.933594 6.140625 -53.933594 5.699219 -53.933594 L 5.261719 -54.371094 C 8.769531 -73.226562 17.539062 -89.011719 31.132812 -100.851562 C 33.324219 -103.042969 38.585938 -106.113281 41.65625 -106.113281 C 43.847656 -106.113281 45.601562 -105.238281 47.796875 -103.921875 C 49.988281 -102.605469 50.425781 -100.414062 49.550781 -97.78125 C 49.109375 -96.46875 48.234375 -96.027344 47.796875 -95.589844 C 35.957031 -81.121094 24.117188 -66.648438 10.085938 -54.8125 C 9.207031 -53.933594 7.894531 -53.496094 6.140625 -53.496094 Z M 6.140625 -53.496094 "/></g></g></g><g fill="rgb(100%, 100%, 100%)" fill-opacity="0.2588"><g transform="translate(152.649195, 270.124504)"><g><path d="M 2.632812 -4.386719 C 4.824219 -4.386719 6.578125 -5.261719 8.332031 -7.015625 C 13.15625 -10.960938 14.910156 -15.785156 17.976562 -21.046875 C 24.992188 -33.324219 32.007812 -46.042969 39.023438 -58.757812 C 44.726562 -68.84375 50.863281 -78.488281 58.320312 -87.257812 C 59.632812 -88.574219 60.511719 -90.328125 61.828125 -92.519531 C 63.140625 -94.273438 64.457031 -94.714844 66.210938 -94.273438 C 68.402344 -93.835938 69.71875 -92.082031 69.28125 -89.890625 C 68.84375 -87.699219 68.402344 -85.503906 68.402344 -83.75 C 68.402344 -77.171875 67.964844 -70.597656 67.527344 -64.019531 C 67.527344 -57.003906 67.527344 -50.863281 70.597656 -44.289062 C 72.789062 -41.21875 74.980469 -39.902344 78.050781 -39.902344 C 78.488281 -39.902344 79.804688 -40.339844 81.558594 -40.78125 C 84.628906 -42.09375 87.699219 -44.289062 89.890625 -46.480469 C 92.082031 -48.671875 94.714844 -51.304688 96.90625 -53.496094 C 99.976562 -56.566406 103.484375 -60.074219 106.550781 -63.140625 C 109.621094 -66.210938 113.128906 -69.28125 117.074219 -71.472656 C 119.269531 -70.15625 121.023438 -67.964844 121.898438 -65.773438 C 122.339844 -63.582031 123.652344 -61.386719 124.96875 -59.195312 C 129.792969 -51.742188 135.929688 -48.234375 143.386719 -48.234375 C 146.894531 -48.234375 150.402344 -48.671875 153.46875 -49.988281 C 159.609375 -53.058594 164.871094 -56.125 169.257812 -59.632812 L 195.566406 -81.996094 C 197.757812 -83.75 199.949219 -85.945312 201.703125 -88.136719 C 204.773438 -91.207031 204.773438 -93.835938 202.144531 -96.46875 C 201.265625 -97.78125 199.949219 -98.660156 198.195312 -98.660156 C 196.882812 -98.660156 195.566406 -97.78125 193.371094 -96.46875 C 192.933594 -95.152344 192.058594 -94.714844 191.617188 -94.273438 C 182.410156 -85.945312 172.324219 -77.171875 162.242188 -68.84375 C 158.292969 -65.773438 149.085938 -59.632812 143.386719 -59.632812 C 140.753906 -59.632812 138.125 -60.949219 135.929688 -63.582031 C 134.175781 -65.773438 132.863281 -67.964844 131.546875 -71.035156 C 131.109375 -72.351562 130.667969 -73.664062 130.230469 -74.980469 C 129.792969 -76.296875 128.914062 -77.613281 128.039062 -78.929688 C 126.285156 -82.875 123.214844 -84.628906 119.269531 -84.628906 C 118.832031 -84.628906 117.074219 -84.191406 114.882812 -83.75 C 112.253906 -82.4375 109.621094 -80.683594 106.550781 -78.488281 C 104.359375 -76.296875 101.730469 -73.664062 99.535156 -71.472656 C 96.90625 -69.28125 94.273438 -66.648438 92.082031 -64.457031 L 83.75 -56.566406 C 83.3125 -56.566406 83.3125 -56.566406 82.875 -56.125 C 80.683594 -56.125 79.367188 -57.003906 79.367188 -58.757812 C 79.367188 -60.074219 79.367188 -61.828125 79.367188 -63.582031 C 78.929688 -65.335938 78.929688 -67.089844 78.929688 -68.84375 C 79.367188 -72.351562 79.367188 -75.859375 79.804688 -79.367188 C 80.242188 -82.875 80.242188 -86.382812 80.242188 -90.328125 C 80.683594 -95.589844 80.683594 -100.851562 78.488281 -105.675781 C 77.171875 -109.621094 74.542969 -111.8125 70.597656 -111.8125 C 69.28125 -111.8125 67.527344 -111.375 65.773438 -110.5 C 53.933594 -102.167969 44.289062 -89.011719 36.832031 -77.171875 C 32.886719 -71.035156 29.378906 -64.894531 25.871094 -58.757812 C 22.363281 -52.179688 18.855469 -46.042969 15.347656 -39.902344 C 14.910156 -39.464844 14.46875 -38.585938 14.03125 -37.710938 C 13.59375 -36.832031 13.15625 -36.394531 11.839844 -36.394531 C 10.960938 -36.394531 10.085938 -36.394531 9.648438 -36.832031 C 10.085938 -37.710938 10.085938 -38.585938 10.085938 -39.464844 C 9.648438 -40.339844 9.648438 -41.21875 10.085938 -42.535156 C 17.539062 -77.613281 27.625 -112.691406 42.972656 -144.699219 C 43.847656 -146.894531 44.726562 -148.648438 46.042969 -150.839844 C 46.917969 -152.59375 46.917969 -154.785156 46.480469 -156.980469 C 46.042969 -158.292969 43.847656 -160.488281 42.535156 -160.488281 C 42.09375 -160.488281 41.21875 -160.046875 39.902344 -159.609375 C 30.253906 -154.785156 10.960938 -91.644531 7.453125 -80.242188 C 0.878906 -57.878906 -4.386719 -34.640625 -4.386719 -11.402344 C -4.386719 -7.894531 -2.632812 -5.699219 0.4375 -4.824219 C 0.878906 -4.386719 1.753906 -4.386719 2.632812 -4.386719 Z M 2.632812 -4.386719 "/></g></g></g><g fill="rgb(100%, 100%, 100%)" fill-opacity="1"><g transform="translate(38.224459, 268.106351)"><g><path d="M 2.191406 -37.710938 C 7.894531 -37.710938 15.347656 -43.847656 19.292969 -47.355469 C 30.253906 -57.441406 39.902344 -67.964844 49.988281 -79.804688 C 51.304688 -81.121094 53.058594 -82.875 54.371094 -84.628906 C 55.6875 -86.382812 57.878906 -87.699219 60.949219 -89.011719 C 57.878906 -77.171875 55.25 -65.773438 55.25 -53.933594 C 55.25 -45.601562 58.757812 -41.21875 66.210938 -41.21875 C 67.964844 -41.21875 69.28125 -41.21875 70.15625 -41.65625 C 88.574219 -44.726562 119.707031 -74.105469 132.421875 -86.820312 C 132.863281 -87.257812 133.738281 -88.136719 134.175781 -88.574219 C 134.617188 -89.011719 134.617188 -89.453125 135.054688 -89.890625 C 135.929688 -92.960938 135.492188 -95.152344 133.300781 -96.46875 C 132.421875 -97.34375 131.546875 -97.78125 130.230469 -97.78125 C 129.792969 -97.78125 129.355469 -97.34375 128.039062 -96.90625 C 126.722656 -96.027344 125.40625 -95.152344 124.53125 -94.273438 C 123.214844 -92.960938 121.898438 -92.082031 120.585938 -90.765625 C 116.636719 -87.699219 113.128906 -84.628906 110.058594 -81.558594 C 106.550781 -78.488281 103.042969 -74.980469 99.097656 -71.910156 C 93.835938 -67.089844 88.136719 -63.582031 82.875 -60.074219 C 78.929688 -57.878906 74.980469 -56.125 71.035156 -54.371094 C 70.597656 -53.933594 70.15625 -53.933594 69.28125 -53.933594 C 67.527344 -53.933594 66.648438 -55.25 66.648438 -57.878906 C 66.648438 -76.734375 80.242188 -108.746094 88.574219 -125.40625 C 89.453125 -127.601562 90.328125 -129.355469 91.644531 -131.546875 C 92.519531 -133.300781 93.398438 -135.054688 94.273438 -137.246094 C 95.589844 -141.191406 95.152344 -144.261719 92.082031 -146.015625 C 90.765625 -146.453125 89.890625 -146.894531 89.453125 -146.894531 C 88.136719 -146.894531 86.382812 -146.015625 84.191406 -143.824219 C 82.875 -142.507812 81.996094 -140.753906 81.121094 -139.4375 C 79.804688 -137.683594 78.929688 -135.929688 77.613281 -134.617188 C 74.980469 -131.109375 72.351562 -127.601562 70.15625 -124.09375 C 67.527344 -120.585938 64.894531 -117.074219 62.265625 -114.007812 C 60.511719 -111.8125 59.195312 -110.5 58.320312 -110.5 C 57.878906 -110.5 56.566406 -111.375 54.371094 -112.691406 C 49.988281 -116.199219 45.601562 -117.953125 41.21875 -117.953125 C 36.394531 -117.953125 31.570312 -116.199219 26.746094 -112.253906 C 23.679688 -110.058594 21.484375 -108.304688 20.171875 -106.550781 C 7.015625 -93.398438 -7.453125 -67.527344 -7.453125 -48.234375 C -7.015625 -41.21875 -3.507812 -37.710938 2.191406 -37.710938 Z M 6.140625 -53.496094 C 6.140625 -53.933594 6.140625 -53.933594 5.699219 -53.933594 L 5.261719 -54.371094 C 8.769531 -73.226562 17.539062 -89.011719 31.132812 -100.851562 C 33.324219 -103.042969 38.585938 -106.113281 41.65625 -106.113281 C 43.847656 -106.113281 45.601562 -105.238281 47.796875 -103.921875 C 49.988281 -102.605469 50.425781 -100.414062 49.550781 -97.78125 C 49.109375 -96.46875 48.234375 -96.027344 47.796875 -95.589844 C 35.957031 -81.121094 24.117188 -66.648438 10.085938 -54.8125 C 9.207031 -53.933594 7.894531 -53.496094 6.140625 -53.496094 Z M 6.140625 -53.496094 "/></g></g></g><g fill="rgb(100%, 100%, 100%)" fill-opacity="1"><g transform="translate(151.79254, 268.106351)"><g><path d="M 2.632812 -4.386719 C 4.824219 -4.386719 6.578125 -5.261719 8.332031 -7.015625 C 13.15625 -10.960938 14.910156 -15.785156 17.976562 -21.046875 C 24.992188 -33.324219 32.007812 -46.042969 39.023438 -58.757812 C 44.726562 -68.84375 50.863281 -78.488281 58.320312 -87.257812 C 59.632812 -88.574219 60.511719 -90.328125 61.828125 -92.519531 C 63.140625 -94.273438 64.457031 -94.714844 66.210938 -94.273438 C 68.402344 -93.835938 69.71875 -92.082031 69.28125 -89.890625 C 68.84375 -87.699219 68.402344 -85.503906 68.402344 -83.75 C 68.402344 -77.171875 67.964844 -70.597656 67.527344 -64.019531 C 67.527344 -57.003906 67.527344 -50.863281 70.597656 -44.289062 C 72.789062 -41.21875 74.980469 -39.902344 78.050781 -39.902344 C 78.488281 -39.902344 79.804688 -40.339844 81.558594 -40.78125 C 84.628906 -42.09375 87.699219 -44.289062 89.890625 -46.480469 C 92.082031 -48.671875 94.714844 -51.304688 96.90625 -53.496094 C 99.976562 -56.566406 103.484375 -60.074219 106.550781 -63.140625 C 109.621094 -66.210938 113.128906 -69.28125 117.074219 -71.472656 C 119.269531 -70.15625 121.023438 -67.964844 121.898438 -65.773438 C 122.339844 -63.582031 123.652344 -61.386719 124.96875 -59.195312 C 129.792969 -51.742188 135.929688 -48.234375 143.386719 -48.234375 C 146.894531 -48.234375 150.402344 -48.671875 153.46875 -49.988281 C 159.609375 -53.058594 164.871094 -56.125 169.257812 -59.632812 L 195.566406 -81.996094 C 197.757812 -83.75 199.949219 -85.945312 201.703125 -88.136719 C 204.773438 -91.207031 204.773438 -93.835938 202.144531 -96.46875 C 201.265625 -97.78125 199.949219 -98.660156 198.195312 -98.660156 C 196.882812 -98.660156 195.566406 -97.78125 193.371094 -96.46875 C 192.933594 -95.152344 192.058594 -94.714844 191.617188 -94.273438 C 182.410156 -85.945312 172.324219 -77.171875 162.242188 -68.84375 C 158.292969 -65.773438 149.085938 -59.632812 143.386719 -59.632812 C 140.753906 -59.632812 138.125 -60.949219 135.929688 -63.582031 C 134.175781 -65.773438 132.863281 -67.964844 131.546875 -71.035156 C 131.109375 -72.351562 130.667969 -73.664062 130.230469 -74.980469 C 129.792969 -76.296875 128.914062 -77.613281 128.039062 -78.929688 C 126.285156 -82.875 123.214844 -84.628906 119.269531 -84.628906 C 118.832031 -84.628906 117.074219 -84.191406 114.882812 -83.75 C 112.253906 -82.4375 109.621094 -80.683594 106.550781 -78.488281 C 104.359375 -76.296875 101.730469 -73.664062 99.535156 -71.472656 C 96.90625 -69.28125 94.273438 -66.648438 92.082031 -64.457031 L 83.75 -56.566406 C 83.3125 -56.566406 83.3125 -56.566406 82.875 -56.125 C 80.683594 -56.125 79.367188 -57.003906 79.367188 -58.757812 C 79.367188 -60.074219 79.367188 -61.828125 79.367188 -63.582031 C 78.929688 -65.335938 78.929688 -67.089844 78.929688 -68.84375 C 79.367188 -72.351562 79.367188 -75.859375 79.804688 -79.367188 C 80.242188 -82.875 80.242188 -86.382812 80.242188 -90.328125 C 80.683594 -95.589844 80.683594 -100.851562 78.488281 -105.675781 C 77.171875 -109.621094 74.542969 -111.8125 70.597656 -111.8125 C 69.28125 -111.8125 67.527344 -111.375 65.773438 -110.5 C 53.933594 -102.167969 44.289062 -89.011719 36.832031 -77.171875 C 32.886719 -71.035156 29.378906 -64.894531 25.871094 -58.757812 C 22.363281 -52.179688 18.855469 -46.042969 15.347656 -39.902344 C 14.910156 -39.464844 14.46875 -38.585938 14.03125 -37.710938 C 13.59375 -36.832031 13.15625 -36.394531 11.839844 -36.394531 C 10.960938 -36.394531 10.085938 -36.394531 9.648438 -36.832031 C 10.085938 -37.710938 10.085938 -38.585938 10.085938 -39.464844 C 9.648438 -40.339844 9.648438 -41.21875 10.085938 -42.535156 C 17.539062 -77.613281 27.625 -112.691406 42.972656 -144.699219 C 43.847656 -146.894531 44.726562 -148.648438 46.042969 -150.839844 C 46.917969 -152.59375 46.917969 -154.785156 46.480469 -156.980469 C 46.042969 -158.292969 43.847656 -160.488281 42.535156 -160.488281 C 42.09375 -160.488281 41.21875 -160.046875 39.902344 -159.609375 C 30.253906 -154.785156 10.960938 -91.644531 7.453125 -80.242188 C 0.878906 -57.878906 -4.386719 -34.640625 -4.386719 -11.402344 C -4.386719 -7.894531 -2.632812 -5.699219 0.4375 -4.824219 C 0.878906 -4.386719 1.753906 -4.386719 2.632812 -4.386719 Z M 2.632812 -4.386719 "/></g></g></g></svg>