<svg xmlns="http://www.w3.org/2000/svg" xmlns:xlink="http://www.w3.org/1999/xlink" width="500" zoomAndPan="magnify" viewBox="0 0 375 374.999991" height="500" preserveAspectRatio="xMidYMid meet" version="1.0"><defs><clipPath id="f3c24e24e8"><path d="M 26.640625 26.640625 L 348.390625 26.640625 L 348.390625 348.390625 L 26.640625 348.390625 Z M 26.640625 26.640625 " clip-rule="nonzero"/></clipPath><clipPath id="3de4c724fc"><path d="M 17.355469 17.355469 L 355.488281 17.355469 L 355.488281 355.488281 L 17.355469 355.488281 Z M 17.355469 17.355469 " clip-rule="nonzero"/></clipPath></defs><g clip-path="url(#f3c24e24e8)"><path fill="#4b18af" d="M 187.515625 26.640625 C 98.664062 26.640625 26.640625 98.664062 26.640625 187.515625 C 26.640625 276.363281 98.664062 348.390625 187.515625 348.390625 C 276.363281 348.390625 348.390625 276.363281 348.390625 187.515625 C 348.390625 98.664062 276.363281 26.640625 187.515625 26.640625 " fill-opacity="1" fill-rule="nonzero"/></g><path fill="#ffffff" d="M 62.050781 226.050781 C 66.945312 226.050781 73.339844 220.785156 76.726562 217.777344 C 86.128906 209.121094 94.40625 200.09375 103.0625 189.933594 C 104.191406 188.804688 105.695312 187.300781 106.820312 185.796875 C 107.953125 184.289062 109.832031 183.160156 112.464844 182.035156 C 109.832031 192.195312 107.574219 201.972656 107.574219 212.132812 C 107.574219 219.28125 110.585938 223.042969 116.980469 223.042969 C 118.484375 223.042969 119.613281 223.042969 120.367188 222.664062 C 136.167969 220.03125 162.878906 194.824219 173.789062 183.914062 C 174.167969 183.539062 174.917969 182.785156 175.292969 182.410156 C 175.671875 182.035156 175.671875 181.65625 176.046875 181.28125 C 176.800781 178.648438 176.421875 176.765625 174.542969 175.636719 C 173.789062 174.886719 173.039062 174.511719 171.910156 174.511719 C 171.535156 174.511719 171.160156 174.886719 170.027344 175.261719 C 168.898438 176.015625 167.769531 176.765625 167.019531 177.519531 C 165.890625 178.648438 164.761719 179.402344 163.632812 180.53125 C 160.246094 183.160156 157.234375 185.796875 154.601562 188.429688 C 151.59375 191.0625 148.582031 194.074219 145.195312 196.707031 C 140.683594 200.84375 135.792969 203.855469 131.277344 206.863281 C 127.894531 208.746094 124.503906 210.25 121.121094 211.757812 C 120.742188 212.132812 120.367188 212.132812 119.613281 212.132812 C 118.109375 212.132812 117.355469 211.003906 117.355469 208.746094 C 117.355469 192.570312 129.019531 165.101562 136.167969 150.808594 C 136.921875 148.925781 137.671875 147.421875 138.800781 145.539062 C 139.554688 144.035156 140.308594 142.53125 141.058594 140.648438 C 142.1875 137.265625 141.8125 134.628906 139.175781 133.125 C 138.046875 132.75 137.296875 132.371094 136.921875 132.371094 C 135.792969 132.371094 134.289062 133.125 132.40625 135.007812 C 131.277344 136.136719 130.523438 137.640625 129.773438 138.769531 C 128.644531 140.273438 127.894531 141.78125 126.761719 142.90625 C 124.503906 145.914062 122.25 148.925781 120.367188 151.933594 C 118.109375 154.945312 115.851562 157.957031 113.59375 160.589844 C 112.089844 162.472656 110.960938 163.597656 110.210938 163.597656 C 109.832031 163.597656 108.707031 162.847656 106.820312 161.71875 C 103.0625 158.707031 99.296875 157.203125 95.535156 157.203125 C 91.398438 157.203125 87.257812 158.707031 83.121094 162.09375 C 80.488281 163.976562 78.605469 165.480469 77.480469 166.988281 C 66.191406 178.269531 53.777344 200.46875 53.777344 217.023438 C 54.152344 223.042969 57.160156 226.050781 62.050781 226.050781 Z M 65.441406 212.507812 C 65.441406 212.132812 65.441406 212.132812 65.0625 212.132812 L 64.6875 211.757812 C 67.695312 195.578125 75.21875 182.035156 86.882812 171.875 C 88.761719 169.996094 93.277344 167.363281 95.914062 167.363281 C 97.792969 167.363281 99.296875 168.113281 101.179688 169.242188 C 103.0625 170.371094 103.4375 172.25 102.6875 174.511719 C 102.308594 175.636719 101.554688 176.015625 101.179688 176.390625 C 91.023438 188.804688 80.863281 201.222656 68.824219 211.378906 C 68.070312 212.132812 66.945312 212.507812 65.441406 212.507812 Z M 65.441406 212.507812 " fill-opacity="0.2588" fill-rule="nonzero"/><path fill="#ffffff" d="M 159.871094 254.644531 C 161.753906 254.644531 163.257812 253.890625 164.761719 252.386719 C 168.902344 249.003906 170.40625 244.863281 173.039062 240.347656 C 179.058594 229.816406 185.078125 218.902344 191.09375 207.992188 C 195.988281 199.339844 201.253906 191.0625 207.652344 183.539062 C 208.777344 182.410156 209.53125 180.90625 210.660156 179.023438 C 211.789062 177.519531 212.917969 177.140625 214.421875 177.519531 C 216.304688 177.894531 217.433594 179.402344 217.058594 181.28125 C 216.679688 183.160156 216.304688 185.042969 216.304688 186.550781 C 216.304688 192.195312 215.925781 197.835938 215.550781 203.476562 C 215.550781 209.496094 215.550781 214.765625 218.1875 220.40625 C 220.066406 223.042969 221.945312 224.171875 224.582031 224.171875 C 224.957031 224.171875 226.085938 223.796875 227.589844 223.417969 C 230.226562 222.289062 232.859375 220.40625 234.738281 218.527344 C 236.621094 216.648438 238.878906 214.386719 240.757812 212.507812 C 243.394531 209.875 246.402344 206.863281 249.035156 204.230469 C 251.667969 201.597656 254.679688 198.964844 258.0625 197.082031 C 259.945312 198.214844 261.453125 200.09375 262.203125 201.972656 C 262.582031 203.855469 263.707031 205.738281 264.835938 207.617188 C 268.976562 214.011719 274.242188 217.023438 280.640625 217.023438 C 283.648438 217.023438 286.660156 216.648438 289.289062 215.515625 C 294.558594 212.882812 299.074219 210.25 302.835938 207.242188 L 325.410156 188.054688 C 327.289062 186.550781 329.171875 184.664062 330.675781 182.785156 C 333.308594 180.152344 333.308594 177.894531 331.054688 175.636719 C 330.300781 174.511719 329.171875 173.757812 327.664062 173.757812 C 326.539062 173.757812 325.410156 174.511719 323.527344 175.636719 C 323.152344 176.765625 322.398438 177.140625 322.019531 177.519531 C 314.121094 184.664062 305.46875 192.195312 296.816406 199.339844 C 293.429688 201.972656 285.527344 207.242188 280.640625 207.242188 C 278.378906 207.242188 276.125 206.113281 274.242188 203.855469 C 272.738281 201.972656 271.609375 200.09375 270.480469 197.457031 C 270.105469 196.328125 269.726562 195.203125 269.351562 194.074219 C 268.976562 192.945312 268.222656 191.816406 267.472656 190.683594 C 265.964844 187.300781 263.332031 185.796875 259.945312 185.796875 C 259.570312 185.796875 258.0625 186.171875 256.183594 186.550781 C 253.925781 187.675781 251.667969 189.179688 249.035156 191.0625 C 247.152344 192.945312 244.898438 195.203125 243.015625 197.082031 C 240.757812 198.964844 238.5 201.222656 236.621094 203.101562 L 229.472656 209.875 C 229.09375 209.875 229.09375 209.875 228.71875 210.25 C 226.839844 210.25 225.710938 209.496094 225.710938 207.992188 C 225.710938 206.863281 225.710938 205.359375 225.710938 203.855469 C 225.335938 202.347656 225.335938 200.84375 225.335938 199.339844 C 225.710938 196.328125 225.710938 193.320312 226.085938 190.308594 C 226.460938 187.300781 226.460938 184.289062 226.460938 180.90625 C 226.839844 176.390625 226.839844 171.875 224.957031 167.738281 C 223.828125 164.351562 221.570312 162.472656 218.1875 162.472656 C 217.058594 162.472656 215.550781 162.847656 214.046875 163.597656 C 203.886719 170.746094 195.613281 182.035156 189.214844 192.195312 C 185.832031 197.457031 182.820312 202.726562 179.8125 207.992188 C 176.800781 213.636719 173.792969 218.902344 170.78125 224.171875 C 170.40625 224.546875 170.027344 225.300781 169.652344 226.050781 C 169.277344 226.804688 168.902344 227.179688 167.773438 227.179688 C 167.019531 227.179688 166.265625 227.179688 165.890625 226.804688 C 166.265625 226.050781 166.265625 225.300781 166.265625 224.546875 C 165.890625 223.796875 165.890625 223.042969 166.265625 221.910156 C 172.660156 191.816406 181.316406 161.71875 194.484375 134.253906 C 195.234375 132.371094 195.988281 130.867188 197.117188 128.988281 C 197.871094 127.480469 197.871094 125.601562 197.492188 123.71875 C 197.117188 122.589844 195.234375 120.707031 194.109375 120.707031 C 193.730469 120.707031 192.980469 121.085938 191.851562 121.460938 C 183.570312 125.601562 167.019531 179.777344 164.007812 189.558594 C 158.367188 208.746094 153.851562 228.683594 153.851562 248.625 C 153.851562 251.632812 155.355469 253.515625 157.988281 254.269531 C 158.367188 254.644531 159.117188 254.644531 159.871094 254.644531 Z M 159.871094 254.644531 " fill-opacity="0.2588" fill-rule="nonzero"/><path fill="#ffffff" d="M 61.316406 224.320312 C 66.210938 224.320312 72.605469 219.054688 75.988281 216.042969 C 85.394531 207.390625 93.671875 198.359375 102.324219 188.203125 C 103.457031 187.074219 104.960938 185.566406 106.085938 184.0625 C 107.214844 182.558594 109.097656 181.429688 111.730469 180.300781 C 109.097656 190.460938 106.839844 200.242188 106.839844 210.398438 C 106.839844 217.546875 109.851562 221.308594 116.246094 221.308594 C 117.75 221.308594 118.878906 221.308594 119.628906 220.933594 C 135.433594 218.300781 162.144531 193.09375 173.054688 182.183594 C 173.433594 181.808594 174.183594 181.054688 174.558594 180.679688 C 174.9375 180.300781 174.9375 179.925781 175.3125 179.546875 C 176.0625 176.914062 175.6875 175.035156 173.808594 173.90625 C 173.054688 173.152344 172.304688 172.777344 171.171875 172.777344 C 170.796875 172.777344 170.421875 173.152344 169.292969 173.527344 C 168.164062 174.285156 167.035156 175.035156 166.285156 175.789062 C 165.15625 176.914062 164.023438 177.667969 162.898438 178.796875 C 159.511719 181.429688 156.5 184.0625 153.867188 186.699219 C 150.855469 189.332031 147.847656 192.339844 144.460938 194.976562 C 139.949219 199.113281 135.058594 202.121094 130.542969 205.132812 C 127.15625 207.015625 123.769531 208.519531 120.382812 210.023438 C 120.007812 210.398438 119.628906 210.398438 118.878906 210.398438 C 117.375 210.398438 116.621094 209.269531 116.621094 207.015625 C 116.621094 190.835938 128.285156 163.371094 135.433594 149.078125 C 136.1875 147.191406 136.9375 145.6875 138.066406 143.808594 C 138.816406 142.300781 139.570312 140.796875 140.324219 138.917969 C 141.453125 135.53125 141.078125 132.898438 138.441406 131.394531 C 137.3125 131.019531 136.5625 130.640625 136.1875 130.640625 C 135.058594 130.640625 133.550781 131.394531 131.671875 133.273438 C 130.542969 134.402344 129.789062 135.90625 129.039062 137.039062 C 127.910156 138.542969 127.15625 140.046875 126.027344 141.171875 C 123.769531 144.183594 121.515625 147.191406 119.628906 150.203125 C 117.375 153.210938 115.117188 156.226562 112.859375 158.855469 C 111.355469 160.738281 110.226562 161.867188 109.476562 161.867188 C 109.097656 161.867188 107.96875 161.113281 106.085938 159.984375 C 102.324219 156.976562 98.5625 155.472656 94.800781 155.472656 C 90.664062 155.472656 86.523438 156.976562 82.382812 160.359375 C 79.753906 162.246094 77.871094 163.75 76.742188 165.253906 C 65.457031 176.539062 53.042969 198.734375 53.042969 215.289062 C 53.417969 221.308594 56.425781 224.320312 61.316406 224.320312 Z M 64.703125 210.773438 C 64.703125 210.398438 64.703125 210.398438 64.324219 210.398438 L 63.949219 210.023438 C 66.960938 193.847656 74.484375 180.300781 86.148438 170.144531 C 88.027344 168.265625 92.542969 165.628906 95.175781 165.628906 C 97.058594 165.628906 98.5625 166.378906 100.445312 167.511719 C 102.324219 168.640625 102.703125 170.519531 101.949219 172.777344 C 101.570312 173.90625 100.820312 174.285156 100.445312 174.660156 C 90.289062 187.074219 80.128906 199.492188 68.089844 209.644531 C 67.335938 210.398438 66.210938 210.773438 64.703125 210.773438 Z M 64.703125 210.773438 " fill-opacity="1" fill-rule="nonzero"/><path fill="#ffffff" d="M 159.136719 252.910156 C 161.015625 252.910156 162.523438 252.160156 164.027344 250.65625 C 168.167969 247.269531 169.671875 243.132812 172.300781 238.617188 C 178.320312 228.082031 184.339844 217.167969 190.359375 206.261719 C 195.253906 197.605469 200.519531 189.332031 206.917969 181.808594 C 208.042969 180.679688 208.796875 179.171875 209.925781 177.292969 C 211.054688 175.789062 212.183594 175.410156 213.6875 175.789062 C 215.566406 176.164062 216.695312 177.667969 216.320312 179.546875 C 215.945312 181.429688 215.566406 183.3125 215.566406 184.816406 C 215.566406 190.460938 215.191406 196.101562 214.816406 201.746094 C 214.816406 207.765625 214.816406 213.035156 217.449219 218.675781 C 219.332031 221.308594 221.210938 222.4375 223.847656 222.4375 C 224.222656 222.4375 225.351562 222.0625 226.855469 221.683594 C 229.488281 220.558594 232.125 218.675781 234.003906 216.792969 C 235.882812 214.914062 238.144531 212.65625 240.023438 210.773438 C 242.65625 208.140625 245.667969 205.132812 248.296875 202.5 C 250.933594 199.867188 253.941406 197.230469 257.328125 195.351562 C 259.210938 196.480469 260.714844 198.359375 261.46875 200.242188 C 261.847656 202.121094 262.972656 204.003906 264.101562 205.886719 C 268.242188 212.28125 273.507812 215.289062 279.902344 215.289062 C 282.914062 215.289062 285.921875 214.914062 288.554688 213.785156 C 293.824219 211.152344 298.335938 208.519531 302.101562 205.511719 L 324.675781 186.320312 C 326.554688 184.816406 328.433594 182.933594 329.941406 181.054688 C 332.574219 178.417969 332.574219 176.164062 330.316406 173.90625 C 329.5625 172.777344 328.433594 172.023438 326.929688 172.023438 C 325.804688 172.023438 324.675781 172.777344 322.789062 173.90625 C 322.414062 175.035156 321.664062 175.410156 321.285156 175.789062 C 313.386719 182.933594 304.730469 190.460938 296.082031 197.605469 C 292.695312 200.242188 284.792969 205.511719 279.902344 205.511719 C 277.644531 205.511719 275.390625 204.378906 273.507812 202.121094 C 272 200.242188 270.875 198.359375 269.746094 195.726562 C 269.371094 194.597656 268.992188 193.472656 268.617188 192.339844 C 268.242188 191.210938 267.488281 190.082031 266.734375 188.953125 C 265.230469 185.566406 262.597656 184.0625 259.210938 184.0625 C 258.835938 184.0625 257.328125 184.4375 255.449219 184.816406 C 253.191406 185.945312 250.933594 187.449219 248.296875 189.332031 C 246.417969 191.210938 244.164062 193.472656 242.28125 195.351562 C 240.023438 197.230469 237.765625 199.492188 235.882812 201.371094 L 228.734375 208.140625 C 228.359375 208.140625 228.359375 208.140625 227.984375 208.519531 C 226.105469 208.519531 224.976562 207.765625 224.976562 206.261719 C 224.976562 205.132812 224.976562 203.625 224.976562 202.121094 C 224.601562 200.617188 224.601562 199.113281 224.601562 197.605469 C 224.976562 194.597656 224.976562 191.585938 225.351562 188.578125 C 225.726562 185.566406 225.726562 182.558594 225.726562 179.171875 C 226.105469 174.660156 226.105469 170.144531 224.222656 166.003906 C 223.089844 162.621094 220.835938 160.738281 217.449219 160.738281 C 216.320312 160.738281 214.816406 161.113281 213.3125 161.867188 C 203.152344 169.015625 194.878906 180.300781 188.480469 190.460938 C 185.09375 195.726562 182.085938 200.996094 179.074219 206.261719 C 176.066406 211.90625 173.054688 217.167969 170.046875 222.4375 C 169.671875 222.8125 169.292969 223.566406 168.917969 224.320312 C 168.542969 225.074219 168.167969 225.449219 167.035156 225.449219 C 166.28125 225.449219 165.53125 225.449219 165.15625 225.074219 C 165.53125 224.320312 165.53125 223.566406 165.53125 222.8125 C 165.15625 222.0625 165.15625 221.308594 165.53125 220.179688 C 171.925781 190.082031 180.582031 159.984375 193.75 132.523438 C 194.5 130.640625 195.253906 129.132812 196.382812 127.253906 C 197.132812 125.75 197.132812 123.867188 196.757812 121.984375 C 196.382812 120.859375 194.5 118.976562 193.375 118.976562 C 192.996094 118.976562 192.242188 119.355469 191.113281 119.730469 C 182.835938 123.867188 166.28125 178.042969 163.273438 187.828125 C 157.632812 207.015625 153.113281 226.953125 153.113281 246.890625 C 153.113281 249.902344 154.621094 251.785156 157.253906 252.535156 C 157.632812 252.910156 158.382812 252.910156 159.136719 252.910156 Z M 159.136719 252.910156 " fill-opacity="1" fill-rule="nonzero"/><g clip-path="url(#3de4c724fc)"><path fill="#ffffff" d="M 186.421875 355.488281 C 141.28125 355.488281 98.78125 337.917969 66.886719 305.957031 C 34.921875 274.0625 17.355469 231.558594 17.355469 186.421875 C 17.355469 141.28125 34.921875 98.78125 66.886719 66.886719 C 98.78125 34.921875 141.28125 17.355469 186.421875 17.355469 C 231.558594 17.355469 274.0625 34.921875 305.957031 66.886719 C 337.917969 98.847656 355.488281 141.28125 355.488281 186.421875 C 355.488281 231.558594 337.917969 274.0625 305.957031 305.957031 C 274.0625 337.917969 231.558594 355.488281 186.421875 355.488281 Z M 186.421875 27.492188 C 143.984375 27.492188 104.050781 44.046875 74.046875 74.046875 C 44.046875 104.050781 27.492188 143.984375 27.492188 186.421875 C 27.492188 228.855469 44.046875 268.792969 74.046875 298.792969 C 104.050781 328.796875 143.984375 345.351562 186.421875 345.351562 C 228.855469 345.351562 268.792969 328.796875 298.792969 298.792969 C 328.796875 268.792969 345.351562 228.855469 345.351562 186.421875 C 345.351562 143.984375 328.796875 104.050781 298.792969 74.046875 C 268.792969 44.046875 228.855469 27.492188 186.421875 27.492188 Z M 186.421875 27.492188 " fill-opacity="1" fill-rule="nonzero"/></g></svg>